<mxfile host="app.diagrams.net" modified="2023-12-10T23:06:17.879Z" agent="Mozilla/5.0 (Windows NT 10.0; Win64; x64) AppleWebKit/537.36 (KHTML, like Gecko) Chrome/119.0.0.0 Safari/537.36" etag="-UFcLnYk7YMnwM62hl-T" version="22.1.7" type="device">
  <diagram name="Page-1" id="JKwsABD7l49cdUp9qzBR">
    <mxGraphModel dx="1195" dy="650" grid="1" gridSize="10" guides="1" tooltips="1" connect="1" arrows="1" fold="1" page="1" pageScale="1" pageWidth="850" pageHeight="1100" math="0" shadow="0">
      <root>
        <mxCell id="0" />
        <mxCell id="1" parent="0" />
        <mxCell id="etqrB9nCXOJErPp12jNP-1" value="Inventory" style="swimlane;fontStyle=1;align=center;verticalAlign=top;childLayout=stackLayout;horizontal=1;startSize=26;horizontalStack=0;resizeParent=1;resizeParentMax=0;resizeLast=0;collapsible=1;marginBottom=0;whiteSpace=wrap;html=1;" parent="1" vertex="1">
          <mxGeometry x="40" y="120" width="160" height="290" as="geometry" />
        </mxCell>
        <mxCell id="etqrB9nCXOJErPp12jNP-2" value="+ N/A&amp;nbsp;" style="text;strokeColor=none;fillColor=none;align=left;verticalAlign=top;spacingLeft=4;spacingRight=4;overflow=hidden;rotatable=0;points=[[0,0.5],[1,0.5]];portConstraint=eastwest;whiteSpace=wrap;html=1;" parent="etqrB9nCXOJErPp12jNP-1" vertex="1">
          <mxGeometry y="26" width="160" height="26" as="geometry" />
        </mxCell>
        <mxCell id="etqrB9nCXOJErPp12jNP-3" value="" style="line;strokeWidth=1;fillColor=none;align=left;verticalAlign=middle;spacingTop=-1;spacingLeft=3;spacingRight=3;rotatable=0;labelPosition=right;points=[];portConstraint=eastwest;strokeColor=inherit;" parent="etqrB9nCXOJErPp12jNP-1" vertex="1">
          <mxGeometry y="52" width="160" height="8" as="geometry" />
        </mxCell>
        <mxCell id="etqrB9nCXOJErPp12jNP-4" value="+ public List&amp;lt;InvItem&amp;gt; ReadInventory(List&amp;lt;InvItem&amp;gt; invItems)&lt;br&gt;+ public List&amp;lt;InvItem&amp;gt; IncQtyValue(List&amp;lt;InvItem&amp;gt; invItems, int selectedRowIndex)&lt;br&gt;+ public void WriteInventory(List&amp;lt;InvItem&amp;gt; invItems)&lt;br&gt;+ public List&amp;lt;InvItem&amp;gt; SearchItem(List&amp;lt;InvItem&amp;gt; invItems, List&amp;lt;InvItem&amp;gt; searchItem, string searchCriteria)" style="text;strokeColor=none;fillColor=none;align=left;verticalAlign=top;spacingLeft=4;spacingRight=4;overflow=hidden;rotatable=0;points=[[0,0.5],[1,0.5]];portConstraint=eastwest;whiteSpace=wrap;html=1;" parent="etqrB9nCXOJErPp12jNP-1" vertex="1">
          <mxGeometry y="60" width="160" height="230" as="geometry" />
        </mxCell>
        <mxCell id="etqrB9nCXOJErPp12jNP-7" style="edgeStyle=orthogonalEdgeStyle;rounded=0;orthogonalLoop=1;jettySize=auto;html=1;entryX=0.5;entryY=0;entryDx=0;entryDy=0;" parent="1" source="etqrB9nCXOJErPp12jNP-5" target="etqrB9nCXOJErPp12jNP-6" edge="1">
          <mxGeometry relative="1" as="geometry" />
        </mxCell>
        <mxCell id="etqrB9nCXOJErPp12jNP-5" value="Start" style="strokeWidth=2;html=1;shape=mxgraph.flowchart.start_1;whiteSpace=wrap;fillColor=#dae8fc;strokeColor=#6c8ebf;" parent="1" vertex="1">
          <mxGeometry x="280" y="60" width="100" height="60" as="geometry" />
        </mxCell>
        <mxCell id="etqrB9nCXOJErPp12jNP-6" value="Load Inventory and Display on Data Grid" style="rounded=1;whiteSpace=wrap;html=1;absoluteArcSize=1;arcSize=14;strokeWidth=2;fillColor=#ffe6cc;strokeColor=#d79b00;" parent="1" vertex="1">
          <mxGeometry x="280" y="160" width="100" height="100" as="geometry" />
        </mxCell>
        <mxCell id="etqrB9nCXOJErPp12jNP-11" style="edgeStyle=orthogonalEdgeStyle;rounded=0;orthogonalLoop=1;jettySize=auto;html=1;entryX=0;entryY=0.5;entryDx=0;entryDy=0;" parent="1" source="etqrB9nCXOJErPp12jNP-8" target="etqrB9nCXOJErPp12jNP-10" edge="1">
          <mxGeometry relative="1" as="geometry" />
        </mxCell>
        <mxCell id="etqrB9nCXOJErPp12jNP-12" value="Yes" style="edgeLabel;html=1;align=center;verticalAlign=middle;resizable=0;points=[];" parent="etqrB9nCXOJErPp12jNP-11" vertex="1" connectable="0">
          <mxGeometry x="-0.1481" y="-1" relative="1" as="geometry">
            <mxPoint as="offset" />
          </mxGeometry>
        </mxCell>
        <mxCell id="etqrB9nCXOJErPp12jNP-8" value="Increment&lt;br&gt;Button&lt;br&gt;Clicked?" style="strokeWidth=2;html=1;shape=mxgraph.flowchart.decision;whiteSpace=wrap;fillColor=#f8cecc;strokeColor=#b85450;" parent="1" vertex="1">
          <mxGeometry x="340" y="300" width="100" height="100" as="geometry" />
        </mxCell>
        <mxCell id="etqrB9nCXOJErPp12jNP-16" style="edgeStyle=orthogonalEdgeStyle;rounded=0;orthogonalLoop=1;jettySize=auto;html=1;entryX=0;entryY=0.5;entryDx=0;entryDy=0;" parent="1" source="etqrB9nCXOJErPp12jNP-10" target="etqrB9nCXOJErPp12jNP-15" edge="1">
          <mxGeometry relative="1" as="geometry" />
        </mxCell>
        <mxCell id="etqrB9nCXOJErPp12jNP-10" value="Increase Qty of Selected Row by 1" style="rounded=1;whiteSpace=wrap;html=1;absoluteArcSize=1;arcSize=14;strokeWidth=2;fillColor=#ffe6cc;strokeColor=#d79b00;" parent="1" vertex="1">
          <mxGeometry x="485" y="300" width="100" height="100" as="geometry" />
        </mxCell>
        <mxCell id="etqrB9nCXOJErPp12jNP-15" value="Update Inventory Text File" style="rounded=1;whiteSpace=wrap;html=1;absoluteArcSize=1;arcSize=14;strokeWidth=2;fillColor=#ffe6cc;strokeColor=#d79b00;" parent="1" vertex="1">
          <mxGeometry x="620" y="300" width="100" height="100" as="geometry" />
        </mxCell>
        <mxCell id="etqrB9nCXOJErPp12jNP-17" style="edgeStyle=orthogonalEdgeStyle;rounded=0;orthogonalLoop=1;jettySize=auto;html=1;entryX=1;entryY=0.5;entryDx=0;entryDy=0;entryPerimeter=0;" parent="1" source="etqrB9nCXOJErPp12jNP-15" target="etqrB9nCXOJErPp12jNP-5" edge="1">
          <mxGeometry relative="1" as="geometry">
            <Array as="points">
              <mxPoint x="680" y="350" />
              <mxPoint x="680" y="280" />
              <mxPoint x="400" y="280" />
              <mxPoint x="400" y="90" />
            </Array>
          </mxGeometry>
        </mxCell>
        <mxCell id="etqrB9nCXOJErPp12jNP-18" value="Kohl Johnson&lt;br&gt;Activity 7&lt;br&gt;12-10-2023" style="text;html=1;strokeColor=none;fillColor=none;align=left;verticalAlign=top;whiteSpace=wrap;rounded=0;" parent="1" vertex="1">
          <mxGeometry x="40" y="10" width="160" height="70" as="geometry" />
        </mxCell>
        <mxCell id="etqrB9nCXOJErPp12jNP-19" value="&lt;h1&gt;Part 1&lt;/h1&gt;" style="text;html=1;strokeColor=none;fillColor=none;spacing=5;spacingTop=-20;whiteSpace=wrap;overflow=hidden;rounded=0;" parent="1" vertex="1">
          <mxGeometry x="290" y="10" width="80" height="40" as="geometry" />
        </mxCell>
        <mxCell id="Cbv9fqsHIz7Q-hCjmu0o-13" style="edgeStyle=orthogonalEdgeStyle;rounded=0;orthogonalLoop=1;jettySize=auto;html=1;entryX=0;entryY=0.5;entryDx=0;entryDy=0;" edge="1" parent="1" source="Cbv9fqsHIz7Q-hCjmu0o-1" target="Cbv9fqsHIz7Q-hCjmu0o-6">
          <mxGeometry relative="1" as="geometry" />
        </mxCell>
        <mxCell id="Cbv9fqsHIz7Q-hCjmu0o-14" value="Yes" style="edgeLabel;html=1;align=center;verticalAlign=middle;resizable=0;points=[];" vertex="1" connectable="0" parent="Cbv9fqsHIz7Q-hCjmu0o-13">
          <mxGeometry x="-0.1433" y="-2" relative="1" as="geometry">
            <mxPoint as="offset" />
          </mxGeometry>
        </mxCell>
        <mxCell id="Cbv9fqsHIz7Q-hCjmu0o-1" value="Delete Btn&amp;nbsp;&lt;br&gt;Clicked?" style="strokeWidth=2;html=1;shape=mxgraph.flowchart.decision;whiteSpace=wrap;fillColor=#f8cecc;strokeColor=#b85450;" vertex="1" parent="1">
          <mxGeometry x="340" y="420" width="100" height="100" as="geometry" />
        </mxCell>
        <mxCell id="Cbv9fqsHIz7Q-hCjmu0o-2" style="edgeStyle=orthogonalEdgeStyle;rounded=0;orthogonalLoop=1;jettySize=auto;html=1;entryX=0;entryY=0.5;entryDx=0;entryDy=0;entryPerimeter=0;" edge="1" parent="1" source="etqrB9nCXOJErPp12jNP-6" target="etqrB9nCXOJErPp12jNP-8">
          <mxGeometry relative="1" as="geometry">
            <Array as="points">
              <mxPoint x="320" y="350" />
            </Array>
          </mxGeometry>
        </mxCell>
        <mxCell id="Cbv9fqsHIz7Q-hCjmu0o-3" style="edgeStyle=orthogonalEdgeStyle;rounded=0;orthogonalLoop=1;jettySize=auto;html=1;entryX=0;entryY=0.5;entryDx=0;entryDy=0;entryPerimeter=0;" edge="1" parent="1" source="etqrB9nCXOJErPp12jNP-6" target="Cbv9fqsHIz7Q-hCjmu0o-1">
          <mxGeometry relative="1" as="geometry">
            <Array as="points">
              <mxPoint x="320" y="470" />
            </Array>
          </mxGeometry>
        </mxCell>
        <mxCell id="Cbv9fqsHIz7Q-hCjmu0o-9" style="edgeStyle=orthogonalEdgeStyle;rounded=0;orthogonalLoop=1;jettySize=auto;html=1;entryX=0;entryY=0.5;entryDx=0;entryDy=0;" edge="1" parent="1" source="Cbv9fqsHIz7Q-hCjmu0o-4" target="Cbv9fqsHIz7Q-hCjmu0o-7">
          <mxGeometry relative="1" as="geometry" />
        </mxCell>
        <mxCell id="Cbv9fqsHIz7Q-hCjmu0o-12" value="Yes" style="edgeLabel;html=1;align=center;verticalAlign=middle;resizable=0;points=[];" vertex="1" connectable="0" parent="Cbv9fqsHIz7Q-hCjmu0o-9">
          <mxGeometry x="-0.2352" relative="1" as="geometry">
            <mxPoint as="offset" />
          </mxGeometry>
        </mxCell>
        <mxCell id="Cbv9fqsHIz7Q-hCjmu0o-4" value="Search Btn&lt;br&gt;Clicked?" style="strokeWidth=2;html=1;shape=mxgraph.flowchart.decision;whiteSpace=wrap;fillColor=#f8cecc;strokeColor=#b85450;" vertex="1" parent="1">
          <mxGeometry x="340" y="540" width="100" height="100" as="geometry" />
        </mxCell>
        <mxCell id="Cbv9fqsHIz7Q-hCjmu0o-5" style="edgeStyle=orthogonalEdgeStyle;rounded=0;orthogonalLoop=1;jettySize=auto;html=1;entryX=0;entryY=0.5;entryDx=0;entryDy=0;entryPerimeter=0;" edge="1" parent="1" source="etqrB9nCXOJErPp12jNP-6" target="Cbv9fqsHIz7Q-hCjmu0o-4">
          <mxGeometry relative="1" as="geometry">
            <Array as="points">
              <mxPoint x="320" y="590" />
            </Array>
          </mxGeometry>
        </mxCell>
        <mxCell id="Cbv9fqsHIz7Q-hCjmu0o-16" style="edgeStyle=orthogonalEdgeStyle;rounded=0;orthogonalLoop=1;jettySize=auto;html=1;entryX=0;entryY=0.5;entryDx=0;entryDy=0;" edge="1" parent="1" source="Cbv9fqsHIz7Q-hCjmu0o-6" target="Cbv9fqsHIz7Q-hCjmu0o-15">
          <mxGeometry relative="1" as="geometry" />
        </mxCell>
        <mxCell id="Cbv9fqsHIz7Q-hCjmu0o-6" value="Delete Row from Data Grid" style="rounded=1;whiteSpace=wrap;html=1;absoluteArcSize=1;arcSize=14;strokeWidth=2;fillColor=#ffe6cc;strokeColor=#d79b00;" vertex="1" parent="1">
          <mxGeometry x="485" y="420" width="100" height="100" as="geometry" />
        </mxCell>
        <mxCell id="Cbv9fqsHIz7Q-hCjmu0o-7" value="Display Search Results in FrmSecondary" style="rounded=1;whiteSpace=wrap;html=1;absoluteArcSize=1;arcSize=14;strokeWidth=2;fillColor=#ffe6cc;strokeColor=#d79b00;" vertex="1" parent="1">
          <mxGeometry x="485" y="540" width="100" height="100" as="geometry" />
        </mxCell>
        <mxCell id="Cbv9fqsHIz7Q-hCjmu0o-18" style="edgeStyle=orthogonalEdgeStyle;rounded=0;orthogonalLoop=1;jettySize=auto;html=1;entryX=0;entryY=0.5;entryDx=0;entryDy=0;" edge="1" parent="1" source="Cbv9fqsHIz7Q-hCjmu0o-10" target="Cbv9fqsHIz7Q-hCjmu0o-17">
          <mxGeometry relative="1" as="geometry" />
        </mxCell>
        <mxCell id="Cbv9fqsHIz7Q-hCjmu0o-19" value="Y" style="edgeLabel;html=1;align=center;verticalAlign=middle;resizable=0;points=[];" vertex="1" connectable="0" parent="Cbv9fqsHIz7Q-hCjmu0o-18">
          <mxGeometry x="0.1159" relative="1" as="geometry">
            <mxPoint as="offset" />
          </mxGeometry>
        </mxCell>
        <mxCell id="Cbv9fqsHIz7Q-hCjmu0o-10" value="Exit Btn&lt;br&gt;Clicked?" style="strokeWidth=2;html=1;shape=mxgraph.flowchart.decision;whiteSpace=wrap;fillColor=#f8cecc;strokeColor=#b85450;" vertex="1" parent="1">
          <mxGeometry x="630" y="540" width="100" height="100" as="geometry" />
        </mxCell>
        <mxCell id="Cbv9fqsHIz7Q-hCjmu0o-11" style="edgeStyle=orthogonalEdgeStyle;rounded=0;orthogonalLoop=1;jettySize=auto;html=1;entryX=0;entryY=0.5;entryDx=0;entryDy=0;entryPerimeter=0;" edge="1" parent="1" source="Cbv9fqsHIz7Q-hCjmu0o-7" target="Cbv9fqsHIz7Q-hCjmu0o-10">
          <mxGeometry relative="1" as="geometry" />
        </mxCell>
        <mxCell id="Cbv9fqsHIz7Q-hCjmu0o-15" value="Back to Start" style="shape=process;whiteSpace=wrap;html=1;backgroundOutline=1;fillColor=#dae8fc;strokeColor=#6c8ebf;" vertex="1" parent="1">
          <mxGeometry x="610" y="440" width="120" height="60" as="geometry" />
        </mxCell>
        <mxCell id="Cbv9fqsHIz7Q-hCjmu0o-17" value="Back to Start" style="shape=process;whiteSpace=wrap;html=1;backgroundOutline=1;fillColor=#dae8fc;strokeColor=#6c8ebf;" vertex="1" parent="1">
          <mxGeometry x="760" y="560" width="120" height="60" as="geometry" />
        </mxCell>
      </root>
    </mxGraphModel>
  </diagram>
</mxfile>
